<?xml version="1.0" encoding="iso-8859-1"?>
<!-- Generator: Adobe Illustrator 19.0.0, SVG Export Plug-In . SVG Version: 6.00 Build 0)  -->
<svg version="1.1" id="Capa_1" xmlns="http://www.w3.org/2000/svg" xmlns:xlink="http://www.w3.org/1999/xlink" x="0px" y="0px"
	 viewBox="0 0 512 512" style="enable-background:new 0 0 512 512;" xml:space="preserve">
<path style="fill:#F25F8C;" d="M512,256c0,141.385-114.615,256-256,256c-41.179,0-80.081-9.718-114.552-26.99
	c-19.289-9.676-37.188-21.713-53.311-35.725C34.137,402.348,0,333.155,0,256C0,114.615,114.615,0,256,0
	c53.039,0,102.296,16.123,143.161,43.739c9.613,6.499,18.766,13.636,27.397,21.358C478.992,111.971,512,180.13,512,256z"/>
<polyline style="fill:#40B240;" points="219.727,187.941 208.783,98.36 189.422,139.609 124.136,110.613 153.132,175.899 
	111.883,195.26 201.464,206.204 "/>
<path style="fill:#E42800;" d="M512,256c0,141.385-114.615,256-256,256c-41.179,0-80.081-9.718-114.552-26.99
	c-19.289-9.676-37.188-21.713-53.311-35.725c-7.847-10.459-14.566-21.87-19.895-34.22C11.818,284.39,82.411,225.74,166.849,197.538
	c20.867-6.969,37.24-23.343,44.21-44.21C237.046,75.504,288.904,9.446,399.161,43.739c9.613,6.499,18.766,13.636,27.397,21.358
	C478.992,111.971,512,180.13,512,256z"/>
<path style="fill:#F43D2F;" d="M512,256c0,141.385-114.615,256-256,256c-41.179,0-80.081-9.718-114.552-26.99
	c-1.108-0.731-2.205-1.473-3.291-2.226c-18.745-12.957-34.095-28.139-45.871-45.359c-5.705-8.349-10.564-17.178-14.566-26.457
	c-15.747-36.436-21.964-68.901-18.495-96.465c2.988-23.677,13.302-44.492,30.668-61.858c18.463-18.463,45.453-33.708,80.227-45.317
	c2.759-0.93,5.465-2.006,8.108-3.218c8.61-3.971,16.53-9.467,23.239-16.165c6.416-6.426,11.724-13.949,15.642-22.152
	c1.442-2.978,2.685-6.06,3.741-9.195c11.609-34.774,26.854-61.764,45.317-80.217c17.366-17.377,38.181-27.69,61.858-30.668
	c26.112-3.291,56.613,2.111,90.729,16.06c1.902,0.773,3.814,1.578,5.747,2.414c0.69,0.303,1.379,0.596,2.058,0.909
	C478.992,111.971,512,180.13,512,256z"/>
<path style="fill:#DB342C;" d="M512,256c0,141.385-114.615,256-256,256c-41.179,0-80.081-9.718-114.552-26.99
	c-1.108-0.731-2.205-1.473-3.291-2.226c-18.745-12.957-34.095-28.139-45.871-45.359c1.066,0.543,2.132,1.087,3.208,1.63
	c34.471,17.272,73.373,26.99,114.552,26.99c141.385,0,256-114.615,256-256c0-55.265-17.512-106.433-47.292-148.271
	c1.902,0.773,3.814,1.578,5.747,2.414c0.69,0.303,1.379,0.596,2.058,0.909C478.992,111.971,512,180.13,512,256z"/>
<g>
	<path style="fill:#E42800;" d="M398.691,411.47c0,1.546-0.303,3.114-0.951,4.608c-3.657,8.474-8.944,16.206-15.726,22.977
		c-14.002,14.002-34.513,24.377-59.34,30.03c-26.384,6.008-55.453,6.29-84.093,0.815c-5.935-1.139-11.766-2.508-17.45-4.096
		c-20.114-5.642-38.567-14.085-54.094-24.806c-19.895-13.751-34.252-30.626-42.695-50.166c-11.912-27.606-17-51.806-14.712-69.987
		c1.557-12.382,6.855-22.946,16.185-32.277c3.835-3.835,12.089-8.84,21.912-14.043c23.249-12.319,52.287-1.818,61.753,22.737
		c4.629,11.995,11.901,23.416,21.786,33.301c15.903,15.903,35.777,25.057,55.63,27.272c35.997,4.012,70.217,17.021,99.098,38.149
		c2.884,2.111,5.716,4.295,8.495,6.572C397.218,404.793,398.691,408.095,398.691,411.47z"/>
	<path style="fill:#E42800;" d="M482.617,309.154c-5.653,24.827-16.039,45.338-30.03,59.329c-3.385,3.385-7.022,6.416-10.857,9.038
		c-3.845,2.633-7.889,4.869-12.131,6.698c-4.723,2.048-10.261,0.731-13.521-3.25c-2.539-3.103-4.984-6.28-7.325-9.529
		c-20.689-28.662-33.437-62.495-37.397-98.064c-2.205-19.853-11.368-39.727-27.272-55.63c-9.885-9.885-21.305-17.168-33.301-21.786
		c-24.545-9.467-35.056-38.504-22.737-61.764c5.204-9.812,10.209-18.066,14.043-21.901c9.331-9.331,19.895-14.629,32.287-16.185
		c18.181-2.288,42.381,2.8,69.977,14.712c19.55,8.443,36.425,22.81,50.176,42.695c2.727,3.939,5.298,8.077,7.722,12.372
		c9.812,17.429,17.053,37.616,21.18,59.183C488.908,253.712,488.626,282.781,482.617,309.154z"/>
</g>
<path style="fill:#F96862;" d="M333.762,142.356c-3.074,3.074-7.856,3.868-11.768,1.998c-3.776-1.806-6.13-5.88-5.816-10.056
	c0.337-4.476,3.631-8.28,7.996-9.289c4.026-0.932,8.356,0.737,10.728,4.118C337.748,133.184,337.271,138.847,333.762,142.356z"/>
<g>
	<path style="fill:#CC2105;" d="M398.691,411.47c0,1.546-0.303,3.114-0.951,4.608c-3.657,8.474-8.944,16.206-15.726,22.977
		c-14.002,14.002-34.513,24.377-59.34,30.03c-26.384,6.008-55.453,6.29-84.093,0.815c-5.935-1.139-11.766-2.508-17.45-4.096
		c63.77-2.717,121.49-28.756,164.864-69.82c2.884,2.111,5.716,4.295,8.495,6.572C397.218,404.793,398.691,408.095,398.691,411.47z"
		/>
	<path style="fill:#CC2105;" d="M482.617,309.154c-5.653,24.827-16.039,45.338-30.03,59.329c-3.385,3.385-7.022,6.416-10.857,9.038
		c-3.845,2.633-7.889,4.869-12.131,6.698c-4.723,2.048-10.261,0.731-13.521-3.25c-2.539-3.103-4.984-6.28-7.325-9.529
		c35.83-44.032,57.292-100.216,57.292-161.395c0-15.057-1.296-29.811-3.793-44.157c9.812,17.429,17.053,37.616,21.18,59.183
		C488.908,253.712,488.626,282.781,482.617,309.154z"/>
</g>
<g>
	<path style="fill:#F96862;" d="M443.488,324.212c-5.382-1.858-8.251-7.734-6.393-13.116l0,0c1.858-5.394,7.734-8.25,13.122-6.398
		l0,0c5.388,1.863,8.249,7.733,6.386,13.122l0,0l0,0l0,0c-0.528,1.527-1.375,2.857-2.447,3.929l0,0
		C451.452,324.453,447.349,325.537,443.488,324.212z M452.681,292.323c-5.674-0.556-9.822-5.601-9.266-11.274l0,0
		c0.561-5.669,5.607-9.816,11.281-9.261l0,0c5.674,0.556,9.816,5.607,9.26,11.281l0,0c-0.241,2.464-1.342,4.652-2.969,6.28l0,0
		C458.877,291.459,455.881,292.637,452.681,292.323z M454.667,259.188c-5.674,0.522-10.703-3.654-11.224-9.328l0,0
		c-0.521-5.674,3.659-10.697,9.333-11.219l0,0c5.674-0.522,10.697,3.648,11.224,9.328l0,0c0,0,0,0-0.006-0.006l0,0
		c0.298,3.182-0.892,6.157-2.985,8.249l0,0C459.365,257.858,457.166,258.958,454.667,259.188z M450.532,226.25
		c-5.489,1.527-11.179-1.683-12.706-7.172l0,0c-1.532-5.484,1.678-11.174,7.172-12.707l0,0c5.489-1.527,11.179,1.683,12.706,7.172
		l0,0c1.032,3.716-0.107,7.526-2.649,10.069l0,0C453.837,224.829,452.305,225.755,450.532,226.25z M440.475,194.607
		c-5.046,2.644-11.281,0.696-13.924-4.35l0,0c-2.644-5.056-0.696-11.292,4.355-13.93l0,0c5.045-2.644,11.281-0.696,13.924,4.35l0,0
		c2.144,4.097,1.268,8.98-1.835,12.083l0,0C442.271,193.484,441.434,194.108,440.475,194.607z M423.744,165.888
		c-4.08,3.967-10.613,3.879-14.587-0.208l0,0c-3.974-4.086-3.878-10.613,0.208-14.587l0,0c4.086-3.974,10.618-3.884,14.592,0.203
		l0,0c3.934,4.057,3.884,10.506-0.101,14.491l0,0C423.822,165.821,423.783,165.849,423.744,165.888z M385.328,149.484
		L385.328,149.484c-5.253-2.201-7.728-8.244-5.522-13.503l0,0c2.206-5.259,8.256-7.728,13.503-5.522l0,0l0,0l0,0
		c5.259,2.206,7.734,8.251,5.522,13.503l0,0c-0.533,1.274-1.297,2.386-2.216,3.306l0,0
		C393.741,150.14,389.307,151.162,385.328,149.484z M355.801,140.072c-5.601-1.077-9.26-6.488-8.188-12.083l0,0
		c1.077-5.59,6.488-9.26,12.083-8.177l0,0c0,0,0,0,0.005-0.006l0,0c5.59,1.077,9.249,6.488,8.177,12.083l0,0
		c-0.41,2.104-1.42,3.934-2.829,5.344l0,0C362.71,139.572,359.292,140.746,355.801,140.072z"/>
	<path style="fill:#F96862;" d="M437.971,350.506c-3.077,3.077-7.853,3.864-11.77,1.996c-3.783-1.805-6.117-5.881-5.814-10.054
		c0.325-4.474,3.635-8.282,7.991-9.293c4.026-0.935,8.361,0.744,10.734,4.12C441.964,341.326,441.475,347.002,437.971,350.506z"/>
	<path style="fill:#F96862;" d="M155.88,320.238c-3.071,3.071-7.86,3.871-11.768,1.998c-3.767-1.806-6.14-5.883-5.816-10.056
		c0.347-4.479,3.625-8.276,7.996-9.289c4.02-0.932,8.365,0.728,10.731,4.115C159.862,311.07,159.394,316.723,155.88,320.238z"/>
	<path style="fill:#F96862;" d="M331.342,443.081c-5.388,1.863-11.264-1.004-13.116-6.393l0,0
		c-1.858-5.382,0.999-11.259,6.393-13.117l0,0c5.382-1.858,11.259,1.01,13.116,6.393l0,0c1.33,3.856,0.241,7.964-2.464,10.669l0,0
		C334.2,441.707,332.87,442.553,331.342,443.081z M296.586,450.427c-5.669,0.561-10.713-3.586-11.275-9.255l0,0
		c-0.556-5.674,3.592-10.72,9.26-11.281l0,0c5.674-0.556,10.72,3.591,11.276,9.266l0,0c0.314,3.198-0.864,6.196-2.975,8.306l0,0
		C301.244,449.092,299.061,450.186,296.586,450.427z M261.492,450.478c-5.68-0.528-9.849-5.551-9.328-11.225l0,0
		c0.521-5.674,5.544-9.855,11.219-9.333l0,0c5.674,0.521,9.85,5.551,9.328,11.224l0,0c-0.23,2.497-1.33,4.697-2.975,6.341l0,0
		C267.643,449.58,264.674,450.765,261.492,450.478z M227.066,444.181c-5.494-1.532-8.705-7.222-7.167-12.712l0,0
		c1.527-5.489,7.217-8.699,12.706-7.172l0,0c5.484,1.532,8.694,7.223,7.167,12.712l0,0c-0.494,1.773-1.42,3.305-2.632,4.518l0,0
		C234.592,444.074,230.781,445.213,227.066,444.181z M194.201,431.307c-5.046-2.644-6.993-8.879-4.35-13.924l0,0
		c2.637-5.051,8.873-6.999,13.93-4.355l0,0c5.046,2.644,6.992,8.879,4.35,13.924l0,0c-0.499,0.959-1.122,1.796-1.846,2.52l0,0
		C203.179,432.575,198.298,433.451,194.201,431.307z M164.82,410.434c-4.086-3.974-4.175-10.506-0.203-14.592l0,0
		c3.974-4.086,10.501-4.181,14.587-0.208l0,0l0,0l0,0c4.086,3.974,4.175,10.506,0.203,14.592l0,0
		c-0.033,0.033-0.068,0.068-0.101,0.101l0,0C175.32,414.312,168.866,414.368,164.82,410.434z M157.485,385.308
		c-5.247,2.206-11.297-0.263-13.503-5.522l0,0c-2.206-5.247,0.27-11.303,5.522-13.503l0,0c5.253-2.211,11.304,0.27,13.509,5.517l0,0
		c1.673,3.985,0.651,8.419-2.223,11.292l0,0C159.869,384.011,158.759,384.774,157.485,385.308z M145.412,354.356
		c-5.595,1.072-11.006-2.587-12.078-8.183l0,0c-1.084-5.595,2.587-11.006,8.177-12.083l0,0c5.601-1.077,11.006,2.587,12.089,8.183
		l0,0c0.668,3.496-0.505,6.914-2.845,9.255l0,0C149.346,352.936,147.518,353.947,145.412,354.356z"/>
	<path style="fill:#F96862;" d="M364.029,424.448c-3.077,3.077-7.854,3.863-11.77,1.996c-3.776-1.802-6.126-5.883-5.814-10.054
		c0.335-4.475,3.628-8.281,7.991-9.293c4.018-0.933,8.373,0.736,10.735,4.119C368.009,415.278,367.542,420.936,364.029,424.448z"/>
	<path style="fill:#F96862;" d="M217.11,165.799l68.245,68.245c10.663,10.663,10.663,27.938,0,38.602
		c-10.658,10.658-27.932,10.658-38.596-0.005l-68.532-68.532c8.615-3.967,16.534-9.463,23.235-16.164
		C207.883,181.525,213.193,173.993,217.11,165.799z"/>
</g>
<g>
</g>
<g>
</g>
<g>
</g>
<g>
</g>
<g>
</g>
<g>
</g>
<g>
</g>
<g>
</g>
<g>
</g>
<g>
</g>
<g>
</g>
<g>
</g>
<g>
</g>
<g>
</g>
<g>
</g>
</svg>
